{
  "accessors": [
    {
      "bufferView": 2,
      "componentType": 5126,
      "count": 905,
      "max": [
        5.010778903961182,
        3.442620038986206,
        18.262897491455078
      ],
      "min": [
        -5.266429901123047,
        0.8536720275878906,
        -9.839229583740234
      ],
      "type": "VEC3"
    },
    {
      "bufferView": 2,
      "byteOffset": 10860,
      "componentType": 5126,
      "count": 905,
      "max": [
        0.998845100402832,
        0.9995675086975098,
        1.0
      ],
      "min": [
        -0.9995054602622986,
        -0.99933922290802,
        -0.9997125267982483
      ],
      "type": "VEC3"
    },
    {
      "bufferView": 1,
      "componentType": 5126,
      "count": 905,
      "max": [
        0.9980469942092896,
        0.976688027381897
      ],
      "min": [
        0.0019529999699443579,
        0.0019529999699443579
      ],
      "type": "VEC2"
    },
    {
      "bufferView": 0,
      "componentType": 5125,
      "count": 3990,
      "type": "SCALAR"
    },
    {
      "bufferView": 2,
      "byteOffset": 21720,
      "componentType": 5126,
      "count": 646,
      "max": [
        10.110300064086914,
        2.2520699501037598,
        -5.930799961090088
      ],
      "min": [
        -10.110300064086914,
        0.8452320098876953,
        -6.898990154266357
      ],
      "type": "VEC3"
    },
    {
      "bufferView": 2,
      "byteOffset": 29472,
      "componentType": 5126,
      "count": 646,
      "max": [
        0.9992396235466003,
        0.9997562170028687,
        0.99973064661026
      ],
      "min": [
        -0.9992396235466003,
        -0.9968557357788086,
        -0.9997861385345459
      ],
      "type": "VEC3"
    },
    {
      "bufferView": 1,
      "byteOffset": 7240,
      "componentType": 5126,
      "count": 646,
      "max": [
        0.9980469942092896,
        0.9951909780502319
      ],
      "min": [
        0.0019529999699443579,
        0.0019529999699443579
      ],
      "type": "VEC2"
    },
    {
      "bufferView": 0,
      "byteOffset": 15960,
      "componentType": 5125,
      "count": 3516,
      "type": "SCALAR"
    },
    {
      "bufferView": 2,
      "byteOffset": 37224,
      "componentType": 5126,
      "count": 992,
      "max": [
        2.4999799728393555,
        7.037069797515869,
        0.7452030181884766
      ],
      "min": [
        -2.4999799728393555,
        5.493000030517578,
        -0.8431140184402466
      ],
      "type": "VEC3"
    },
    {
      "bufferView": 2,
      "byteOffset": 49128,
      "componentType": 5126,
      "count": 992,
      "max": [
        0.9999993443489075,
        1.0,
        1.0
      ],
      "min": [
        -0.9999993443489075,
        -1.0,
        -1.0
      ],
      "type": "VEC3"
    },
    {
      "bufferView": 1,
      "byteOffset": 12408,
      "componentType": 5126,
      "count": 992,
      "max": [
        0.6497340202331543,
        0.9980469942092896
      ],
      "min": [
        0.0019529999699443579,
        0.0019529999699443579
      ],
      "type": "VEC2"
    },
    {
      "bufferView": 0,
      "byteOffset": 30024,
      "componentType": 5125,
      "count": 5760,
      "type": "SCALAR"
    },
    {
      "bufferView": 2,
      "byteOffset": 61032,
      "componentType": 5126,
      "count": 1577,
      "max": [
        7.92897891998291,
        -1.75832998752594,
        15.801300048828125
      ],
      "min": [
        5.609230041503906,
        -8.304360389709473,
        9.239310264587402
      ],
      "type": "VEC3"
    },
    {
      "bufferView": 2,
      "byteOffset": 79956,
      "componentType": 5126,
      "count": 1577,
      "max": [
        0.9999988675117493,
        0.9997459053993225,
        0.9978275895118713
      ],
      "min": [
        -0.9999993443489075,
        -0.9995884895324707,
        -0.9987926483154297
      ],
      "type": "VEC3"
    },
    {
      "bufferView": 1,
      "byteOffset": 20344,
      "componentType": 5126,
      "count": 1577,
      "max": [
        0.7732790112495422,
        0.9980469942092896
      ],
      "min": [
        0.0019529999699443579,
        0.0019529999699443579
      ],
      "type": "VEC2"
    },
    {
      "bufferView": 0,
      "byteOffset": 53064,
      "componentType": 5125,
      "count": 9252,
      "type": "SCALAR"
    },
    {
      "bufferView": 2,
      "byteOffset": 98880,
      "componentType": 5126,
      "count": 1577,
      "max": [
        -5.609230041503906,
        -1.75832998752594,
        -8.801850318908691
      ],
      "min": [
        -7.92897891998291,
        -8.304360389709473,
        -15.363799095153809
      ],
      "type": "VEC3"
    },
    {
      "bufferView": 2,
      "byteOffset": 117804,
      "componentType": 5126,
      "count": 1577,
      "max": [
        0.9999993443489075,
        0.9997459053993225,
        0.9978214502334595
      ],
      "min": [
        -0.9999988675117493,
        -0.9995884895324707,
        -0.9987926483154297
      ],
      "type": "VEC3"
    },
    {
      "bufferView": 1,
      "byteOffset": 32960,
      "componentType": 5126,
      "count": 1577,
      "max": [
        0.7732790112495422,
        0.9980469942092896
      ],
      "min": [
        0.0019529999699443579,
        0.0019529999699443579
      ],
      "type": "VEC2"
    },
    {
      "bufferView": 0,
      "byteOffset": 90072,
      "componentType": 5125,
      "count": 9252,
      "type": "SCALAR"
    },
    {
      "bufferView": 2,
      "byteOffset": 136728,
      "componentType": 5126,
      "count": 1577,
      "max": [
        7.92897891998291,
        -1.75832998752594,
        -8.801850318908691
      ],
      "min": [
        5.609230041503906,
        -8.304360389709473,
        -15.363799095153809
      ],
      "type": "VEC3"
    },
    {
      "bufferView": 2,
      "byteOffset": 155652,
      "componentType": 5126,
      "count": 1577,
      "max": [
        0.9999988675117493,
        0.9997459053993225,
        0.9978214502334595
      ],
      "min": [
        -0.9999993443489075,
        -0.9995884895324707,
        -0.9987926483154297
      ],
      "type": "VEC3"
    },
    {
      "bufferView": 1,
      "byteOffset": 45576,
      "componentType": 5126,
      "count": 1577,
      "max": [
        0.7732790112495422,
        0.9980469942092896
      ],
      "min": [
        0.0019529999699443579,
        0.0019529999699443579
      ],
      "type": "VEC2"
    },
    {
      "bufferView": 0,
      "byteOffset": 127080,
      "componentType": 5125,
      "count": 9252,
      "type": "SCALAR"
    },
    {
      "bufferView": 2,
      "byteOffset": 174576,
      "componentType": 5126,
      "count": 1577,
      "max": [
        -5.609230041503906,
        -1.75832998752594,
        15.801300048828125
      ],
      "min": [
        -7.92897891998291,
        -8.304360389709473,
        9.239310264587402
      ],
      "type": "VEC3"
    },
    {
      "bufferView": 2,
      "byteOffset": 193500,
      "componentType": 5126,
      "count": 1577,
      "max": [
        0.9999993443489075,
        0.9997459053993225,
        0.9978275895118713
      ],
      "min": [
        -0.9999988675117493,
        -0.9995884895324707,
        -0.9987926483154297
      ],
      "type": "VEC3"
    },
    {
      "bufferView": 1,
      "byteOffset": 58192,
      "componentType": 5126,
      "count": 1577,
      "max": [
        0.7732790112495422,
        0.9980469942092896
      ],
      "min": [
        0.0019529999699443579,
        0.0019529999699443579
      ],
      "type": "VEC2"
    },
    {
      "bufferView": 0,
      "byteOffset": 164088,
      "componentType": 5125,
      "count": 9252,
      "type": "SCALAR"
    },
    {
      "bufferView": 2,
      "byteOffset": 212424,
      "componentType": 5126,
      "count": 1314,
      "max": [
        8.328760147094727,
        6.164750099182129,
        19.999797821044922
      ],
      "min": [
        -8.328760147094727,
        -6.094470024108887,
        -19.999797821044922
      ],
      "type": "VEC3"
    },
    {
      "bufferView": 2,
      "byteOffset": 228192,
      "componentType": 5126,
      "count": 1314,
      "max": [
        0.9999556541442871,
        1.0,
        0.9998540282249451
      ],
      "min": [
        -0.9997504949569702,
        -1.0,
        -0.9985993504524231
      ],
      "type": "VEC3"
    },
    {
      "bufferView": 3,
      "componentType": 5126,
      "count": 1314,
      "max": [
        0.9999306201934814,
        0.9942953586578369,
        0.9994181990623474,
        1.0
      ],
      "min": [
        -0.9968283176422119,
        -0.9976991415023804,
        -0.9999758005142212,
        -1.0
      ],
      "type": "VEC4"
    },
    {
      "bufferView": 1,
      "byteOffset": 70808,
      "componentType": 5126,
      "count": 1314,
      "max": [
        0.9980469942092896,
        0.9879159927368164
      ],
      "min": [
        0.0019529999699443579,
        0.0019529999699443579
      ],
      "type": "VEC2"
    },
    {
      "bufferView": 0,
      "byteOffset": 201096,
      "componentType": 5125,
      "count": 7185,
      "type": "SCALAR"
    }
  ],
  "asset": {
    "extras": {
      "author": "DeadLink (https://sketchfab.com/hell3879)",
      "license": "CC-BY-4.0 (http://creativecommons.org/licenses/by/4.0/)",
      "source": "https://sketchfab.com/3d-models/lada-2109-taxi-5520531b380445b8a3b37a3536ae8f51",
      "title": "Lada 2109 Taxi"
    },
    "generator": "Sketchfab-14.1.0",
    "version": "2.0"
  },
  "bufferViews": [
    {
      "buffer": 0,
      "byteLength": 229836,
      "name": "floatBufferViews",
      "target": 34963
    },
    {
      "buffer": 0,
      "byteLength": 81320,
      "byteOffset": 229836,
      "byteStride": 8,
      "name": "floatBufferViews",
      "target": 34962
    },
    {
      "buffer": 0,
      "byteLength": 243960,
      "byteOffset": 311156,
      "byteStride": 12,
      "name": "floatBufferViews",
      "target": 34962
    },
    {
      "buffer": 0,
      "byteLength": 21024,
      "byteOffset": 555116,
      "byteStride": 16,
      "name": "floatBufferViews",
      "target": 34962
    }
  ],
  "buffers": [
    {
      "byteLength": 576140,
      "uri": "scene.bin"
    }
  ],
  "images": [
    {
      "uri": "textures/VAZ2109_BASE_lambert_baseColor.png"
    },
    {
      "uri": "textures/VAZ2109_BASE_lambert_metallicRoughness.png"
    },
    {
      "uri": "textures/VAZ2109_BASE_lambert_normal.png"
    },
    {
      "uri": "textures/Whells3_lambert_baseColor.png"
    },
    {
      "uri": "textures/Whells3_lambert_metallicRoughness.png"
    },
    {
      "uri": "textures/Whells2_lambert_metallicRoughness.png"
    },
    {
      "uri": "textures/taxycap_lambert_baseColor.png"
    },
    {
      "uri": "textures/taxycap_lambert_metallicRoughness.png"
    },
    {
      "uri": "textures/Mirror_lambert_baseColor.png"
    },
    {
      "uri": "textures/Mirror_lambert_metallicRoughness.png"
    },
    {
      "uri": "textures/Cleaner_lambert_baseColor.png"
    }
  ],
  "materials": [
    {
      "doubleSided": true,
      "name": "VAZ2109_BASE_lambert",
      "normalTexture": {
        "index": 2
      },
      "pbrMetallicRoughness": {
        "baseColorTexture": {
          "index": 0
        },
        "metallicRoughnessTexture": {
          "index": 1
        }
      }
    },
    {
      "doubleSided": true,
      "name": "Whells3_lambert",
      "pbrMetallicRoughness": {
        "baseColorTexture": {
          "index": 3
        },
        "metallicRoughnessTexture": {
          "index": 4
        },
        "roughnessFactor": 0.6
      }
    },
    {
      "doubleSided": true,
      "name": "Whells2_lambert",
      "pbrMetallicRoughness": {
        "baseColorTexture": {
          "index": 3
        },
        "metallicRoughnessTexture": {
          "index": 5
        },
        "roughnessFactor": 0.6
      }
    },
    {
      "doubleSided": true,
      "name": "Whells1_lambert",
      "pbrMetallicRoughness": {
        "baseColorTexture": {
          "index": 3
        },
        "metallicRoughnessTexture": {
          "index": 5
        },
        "roughnessFactor": 0.6
      }
    },
    {
      "doubleSided": true,
      "name": "Whells_lambert",
      "pbrMetallicRoughness": {
        "baseColorTexture": {
          "index": 3
        },
        "metallicFactor": 0.0,
        "roughnessFactor": 0.6
      }
    },
    {
      "doubleSided": true,
      "name": "taxycap_lambert",
      "pbrMetallicRoughness": {
        "baseColorTexture": {
          "index": 6
        },
        "metallicRoughnessTexture": {
          "index": 7
        }
      }
    },
    {
      "doubleSided": true,
      "name": "Mirror_lambert",
      "pbrMetallicRoughness": {
        "baseColorTexture": {
          "index": 8
        },
        "metallicRoughnessTexture": {
          "index": 9
        }
      }
    },
    {
      "doubleSided": true,
      "name": "Cleaner_lambert",
      "pbrMetallicRoughness": {
        "baseColorTexture": {
          "index": 10
        },
        "metallicFactor": 0.0,
        "roughnessFactor": 0.6
      }
    }
  ],
  "meshes": [
    {
      "name": "defaultMaterial",
      "primitives": [
        {
          "attributes": {
            "NORMAL": 1,
            "POSITION": 0,
            "TEXCOORD_0": 2
          },
          "indices": 3,
          "material": 7,
          "mode": 4
        }
      ]
    },
    {
      "name": "defaultMaterial",
      "primitives": [
        {
          "attributes": {
            "NORMAL": 5,
            "POSITION": 4,
            "TEXCOORD_0": 6
          },
          "indices": 7,
          "material": 6,
          "mode": 4
        }
      ]
    },
    {
      "name": "defaultMaterial",
      "primitives": [
        {
          "attributes": {
            "NORMAL": 9,
            "POSITION": 8,
            "TEXCOORD_0": 10
          },
          "indices": 11,
          "material": 5,
          "mode": 4
        }
      ]
    },
    {
      "name": "defaultMaterial",
      "primitives": [
        {
          "attributes": {
            "NORMAL": 13,
            "POSITION": 12,
            "TEXCOORD_0": 14
          },
          "indices": 15,
          "material": 4,
          "mode": 4
        }
      ]
    },
    {
      "name": "defaultMaterial",
      "primitives": [
        {
          "attributes": {
            "NORMAL": 17,
            "POSITION": 16,
            "TEXCOORD_0": 18
          },
          "indices": 19,
          "material": 3,
          "mode": 4
        }
      ]
    },
    {
      "name": "defaultMaterial",
      "primitives": [
        {
          "attributes": {
            "NORMAL": 21,
            "POSITION": 20,
            "TEXCOORD_0": 22
          },
          "indices": 23,
          "material": 2,
          "mode": 4
        }
      ]
    },
    {
      "name": "defaultMaterial",
      "primitives": [
        {
          "attributes": {
            "NORMAL": 25,
            "POSITION": 24,
            "TEXCOORD_0": 26
          },
          "indices": 27,
          "material": 1,
          "mode": 4
        }
      ]
    },
    {
      "name": "defaultMaterial",
      "primitives": [
        {
          "attributes": {
            "NORMAL": 29,
            "POSITION": 28,
            "TANGENT": 30,
            "TEXCOORD_0": 31
          },
          "indices": 32,
          "material": 0,
          "mode": 4
        }
      ]
    }
  ],
  "nodes": [
    {
      "children": [
        1
      ],
      "matrix": [
        1.0,
        0.0,
        0.0,
        0.0,
        0.0,
        2.220446049250313e-16,
        -1.0,
        0.0,
        0.0,
        1.0,
        2.220446049250313e-16,
        0.0,
        0.0,
        0.0,
        0.0,
        1.0
      ],
      "name": "Sketchfab_model"
    },
    {
      "children": [
        2,
        4,
        6,
        8,
        10,
        12,
        14,
        16
      ],
      "matrix": [
        1.0,
        0.0,
        0.0,
        0.0,
        0.0,
        -4.371139006309477e-08,
        0.999999999999999,
        0.0,
        0.0,
        -0.999999999999999,
        -4.371139006309477e-08,
        0.0,
        0.0,
        0.0,
        0.0,
        1.0
      ],
      "name": "Collada visual scene group"
    },
    {
      "children": [
        3
      ],
      "name": "Cleaner"
    },
    {
      "mesh": 0,
      "name": "defaultMaterial"
    },
    {
      "children": [
        5
      ],
      "name": "Mirror"
    },
    {
      "mesh": 1,
      "name": "defaultMaterial"
    },
    {
      "children": [
        7
      ],
      "name": "taxycap"
    },
    {
      "mesh": 2,
      "name": "defaultMaterial"
    },
    {
      "children": [
        9
      ],
      "name": "Whells"
    },
    {
      "mesh": 3,
      "name": "defaultMaterial"
    },
    {
      "children": [
        11
      ],
      "name": "Whells1"
    },
    {
      "mesh": 4,
      "name": "defaultMaterial"
    },
    {
      "children": [
        13
      ],
      "name": "Whells2"
    },
    {
      "mesh": 5,
      "name": "defaultMaterial"
    },
    {
      "children": [
        15
      ],
      "name": "Whells3"
    },
    {
      "mesh": 6,
      "name": "defaultMaterial"
    },
    {
      "children": [
        17
      ],
      "name": "VAZ2109_BASE"
    },
    {
      "mesh": 7,
      "name": "defaultMaterial"
    }
  ],
  "samplers": [
    {
      "magFilter": 9729,
      "minFilter": 9987,
      "wrapS": 10497,
      "wrapT": 10497
    }
  ],
  "scene": 0,
  "scenes": [
    {
      "name": "Sketchfab_Scene",
      "nodes": [
        0
      ]
    }
  ],
  "textures": [
    {
      "sampler": 0,
      "source": 0
    },
    {
      "sampler": 0,
      "source": 1
    },
    {
      "sampler": 0,
      "source": 2
    },
    {
      "sampler": 0,
      "source": 3
    },
    {
      "sampler": 0,
      "source": 4
    },
    {
      "sampler": 0,
      "source": 5
    },
    {
      "sampler": 0,
      "source": 6
    },
    {
      "sampler": 0,
      "source": 7
    },
    {
      "sampler": 0,
      "source": 8
    },
    {
      "sampler": 0,
      "source": 9
    },
    {
      "sampler": 0,
      "source": 10
    }
  ]
}
